<svg width="580" height="551" viewBox="0 0 580 551" fill="none" xmlns="http://www.w3.org/2000/svg">
<path d="M265.217 7.70547L242.644 14.6245V57.0412V99.5009L240.8 98.8563C239.504 98.3836 237.76 98.2117 234.92 98.3406C231.631 98.4265 230.336 98.7274 227.595 99.8877C219.273 103.412 214.539 110.202 216.931 115.144C218.526 118.496 223.658 120.258 229.09 119.313C235.667 118.152 242.096 114.156 244.687 109.643L245.883 107.494L246.132 64.9917L246.381 22.489L265.815 16.5584C276.529 13.2923 285.399 10.5848 285.648 10.5848C285.847 10.5848 285.997 23.0477 285.997 38.304C285.997 53.5602 285.897 66.0231 285.797 66.0231C285.698 66.0231 284.751 65.7223 283.705 65.3355C280.466 64.1751 274.586 64.6479 270.4 66.4528C257.693 71.8248 255.151 83.686 266.264 85.8347C273.24 87.167 283.356 82.7835 287.243 76.681L288.738 74.4033L288.887 44.5354C289.037 15.9997 288.738 0.657502 288.04 0.743452C287.89 0.743452 277.575 3.88066 265.217 7.70547Z" fill="black" fill-opacity="0.8"/>
<path d="M204.772 164.265V191.769L202.43 193.273C190.222 201.138 177.764 215.835 169.99 231.478C164.907 241.75 162.565 249.227 160.572 261.776C159.326 269.812 159.326 289.409 160.622 296.371C165.705 324.176 181.402 345.019 207.912 359.201C215.237 363.112 224.206 366.722 230.236 368.183C233.375 368.914 236.166 369.644 236.415 369.816C236.764 369.988 235.668 377.982 233.126 393.711C230.983 406.689 229.239 417.519 229.239 417.734C229.19 417.949 227.695 417.992 225.851 417.863C223.957 417.734 218.775 417.304 214.24 416.96C200.288 415.843 180.305 415.327 170.738 415.843C129.428 417.992 101.223 422.977 85.1778 430.927C80.693 433.205 72.0224 439.264 67.9861 443.003C58.0199 452.286 53.7344 460.709 52.9371 472.656C52.7378 476.008 52.7876 477.298 53.1863 477.298C53.5351 477.298 54.8805 475.407 56.226 473.086C69.481 450.309 91.1575 438.62 128.78 433.936C149.46 431.357 167.798 430.455 183.096 431.271C198.045 432.088 209.058 433.42 237.661 437.932C263.374 441.972 273.489 442.917 293.073 442.917C326.26 442.917 347.239 439.995 382.071 430.412C385.46 429.509 388.3 428.735 388.4 428.735C388.748 428.735 389.147 432.302 389.645 439.909C390.841 457.271 393.333 465.737 401.256 479.446C404.096 484.432 405.492 486.237 407.983 488.557C416.056 495.906 425.673 495.82 429.56 488.385C433.547 480.822 427.368 463.116 416.355 450.395C412.817 446.312 406.737 441.155 397.469 434.408C393.183 431.271 389.645 428.65 389.645 428.521C389.645 428.435 390.841 428.048 392.286 427.618C393.682 427.231 397.818 425.856 401.406 424.61C426.072 415.972 448.695 411.889 472.116 411.846C495.586 411.846 514.821 415.069 538.142 423.02C550.002 427.059 569.286 435.612 578.655 440.941L580 441.714V412.233V382.752L578.156 382.107C566.247 377.81 548.357 374.2 533.956 373.254C530.119 372.996 525.186 372.653 522.993 372.524L519.057 372.223L526.481 366.894C540.285 356.967 547.062 350.262 552.294 341.367C555.184 336.467 558.672 327.743 559.619 323.188C562.459 309.006 550.351 302.173 538.541 311.327C535.401 313.776 532.959 316.956 529.471 323.231C522.296 335.995 519.904 344.633 518.708 362.339C518.21 369.988 517.861 372.696 517.412 372.309C517.313 372.223 516.316 368.269 515.22 363.499C512.03 349.446 510.436 344.848 506.499 338.057C502.463 331.138 492.995 319.922 488.161 316.355C475.654 307.072 459.259 309.522 458.063 320.91C457.665 324.262 458.562 327.142 461.651 332.728C465.189 339.175 469.226 344.289 474.607 349.188C482.132 356.021 489.407 360.233 508.393 368.785C512.479 370.59 515.718 372.137 515.618 372.223C515.519 372.309 511.432 372.61 506.499 372.867C473.013 374.629 438.33 382.15 397.12 396.633C365.129 407.849 325.314 417.863 301.195 420.742C294.319 421.559 280.067 422.504 279.668 422.16C279.469 421.945 273.888 400.544 267.36 374.758L267.011 373.426L275.383 373.168C299.601 372.481 324.018 365.046 349.033 350.821C356.657 346.481 361.69 342.871 369.265 336.381C377.786 328.99 382.221 324.047 385.858 317.859C389.047 312.401 390.044 308.576 389.147 305.482C387.503 299.723 380.576 297.231 375.194 300.454C374.098 301.099 371.407 303.548 369.165 305.912C366.922 308.232 365.029 310.08 364.929 309.994C364.78 309.909 365.278 308.018 365.976 305.783C367.919 299.508 367.52 296.887 364.032 293.492C359.298 288.851 352.87 288.808 348.086 293.363C345.395 295.899 344.249 298.262 343.004 303.548C341.01 312.186 337.622 316.699 331.144 319.32C324.516 322.071 318.038 322.93 310.414 322.199C298.654 320.996 291.478 318.375 285.2 312.96C282.808 310.897 280.416 308.318 279.32 306.642C273.988 298.348 271.994 287.303 274.237 278.322C276.479 269.168 280.466 260.917 289.136 247.336C297.01 235.002 298.255 231.607 297.807 223.743C297.458 217.726 296.312 213.944 292.973 208.014C288.588 200.192 281.512 193.273 272.742 188.245L268.556 185.839L268.456 161.343L268.307 136.847L252.959 157.862C244.488 169.379 237.362 179.134 237.063 179.478C236.814 179.822 236.465 179.951 236.365 179.693C236.066 179.134 205.37 137.276 205.021 137.018C204.872 136.89 204.772 149.138 204.772 164.265ZM248.673 371.75C252.61 372.352 258.141 372.953 260.982 373.125L266.064 373.426L266.114 376.907C266.114 378.841 266.513 389.757 266.961 401.188L267.809 421.988L263.573 421.688C255.002 421.172 241.049 419.582 240.9 419.109C240.75 418.679 238.109 372.352 238.159 370.633C238.159 370.031 238.408 369.988 239.804 370.332C240.75 370.547 244.737 371.191 248.673 371.75Z" fill="black" fill-opacity="0.8"/>
<path d="M63.8999 477.942C60.0131 478.286 56.226 478.587 55.5283 478.673C54.3324 478.802 54.5317 479.017 57.8704 481.466C59.8636 482.928 64.0993 486.065 67.2386 488.471C79.2977 497.668 90.0114 503.04 105.11 507.423C112.286 509.529 113.183 509.658 117.817 509.701C123.598 509.744 126.737 509.014 129.727 506.865C135.308 502.911 134.461 495.949 127.833 490.749C122.252 486.366 110.193 481.294 99.7783 478.931C94.1474 477.642 93.4497 477.599 82.4371 477.47C75.6601 477.427 68.0857 477.599 63.8999 477.942Z" fill="black" fill-opacity="0.8"/>
<path d="M45.0638 478.845C30.7124 480.349 20.9455 484.088 11.5773 491.651C7.49116 494.918 2.10941 500.59 0.913465 502.868C-2.02657 508.369 2.4084 513.354 10.2319 513.397C20.4971 513.44 29.5165 507.08 41.1769 491.694C44.0671 487.913 47.5055 483.443 48.8509 481.724C51.2926 478.63 51.5916 478.114 50.9438 478.2C50.6947 478.243 48.1035 478.501 45.0638 478.845Z" fill="black" fill-opacity="0.8"/>
<path d="M51.7411 480.607C51.4421 481.509 49.2994 485.936 47.057 490.448C38.8847 506.693 37.6389 511.119 37.6389 523.711C37.6887 533.724 38.3864 538.022 40.7284 542.319C47.5055 554.825 62.9531 553.063 67.1389 539.311C68.7833 533.896 69.3813 528.224 69.0823 520.574C68.6837 510.174 66.9894 504.759 60.4117 492.554C58.3686 488.772 55.8771 484.174 54.8805 482.326C53.8838 480.521 52.8872 479.017 52.7377 479.017C52.5384 479.017 52.0899 479.747 51.7411 480.607Z" fill="black" fill-opacity="0.8"/>
</svg>
